<svg fill="#000000" xmlns="http://www.w3.org/2000/svg"  viewBox="0 0 50 50" width="50px" height="50px"><path d="M 16.201172 8 L 18.539062 15.683594 L 18.539062 20.724609 L 20.501953 20.724609 L 20.501953 15.443359 L 22.789062 8.0019531 L 20.791016 8.0019531 L 19.574219 13.089844 L 19.451172 13.089844 L 18.177734 8 L 16.201172 8 z M 25.300781 11.101562 C 24.508781 11.101562 23.87625 11.317047 23.40625 11.748047 C 22.93525 12.175047 22.701172 12.757375 22.701172 13.484375 L 22.701172 18.351562 C 22.701172 19.149562 22.930672 19.785859 23.388672 20.255859 C 23.850672 20.727859 24.458609 20.964844 25.224609 20.964844 C 26.017609 20.964844 26.636797 20.735297 27.091797 20.279297 C 27.541797 19.820297 27.767578 19.189719 27.767578 18.386719 L 27.767578 13.537109 C 27.767578 12.823109 27.534219 12.237156 27.074219 11.785156 C 26.615219 11.329156 26.025781 11.101562 25.300781 11.101562 z M 29.251953 11.339844 L 29.251953 19.185547 C 29.251953 19.747547 29.351641 20.164359 29.556641 20.443359 C 29.761641 20.722359 30.06675 20.861328 30.46875 20.861328 C 30.79475 20.861328 31.132516 20.757547 31.478516 20.560547 C 31.828516 20.361547 32.162375 20.0705 32.484375 19.6875 L 32.484375 20.724609 L 34.230469 20.724609 L 34.230469 11.339844 L 32.486328 11.339844 L 32.486328 18.464844 C 32.323328 18.666844 32.144266 18.83875 31.947266 18.96875 C 31.753266 19.10075 31.589938 19.166016 31.460938 19.166016 C 31.299937 19.166016 31.178422 19.113625 31.107422 19.015625 C 31.032422 18.916625 30.994141 18.755109 30.994141 18.537109 L 30.994141 11.339844 L 29.251953 11.339844 z M 25.21875 12.726562 C 25.44975 12.726562 25.637344 12.792969 25.777344 12.917969 C 25.919344 13.043969 25.990234 13.209109 25.990234 13.412109 L 25.990234 18.525391 C 25.990234 18.777391 25.92025 18.977187 25.78125 19.117188 C 25.63925 19.262187 25.454797 19.335938 25.216797 19.335938 C 24.986797 19.335938 24.8095 19.262047 24.6875 19.123047 C 24.5585 18.982047 24.496094 18.781391 24.496094 18.525391 C 24.496094 18.525391 24.496047 13.412109 24.498047 13.412109 C 24.498047 13.209109 24.564266 13.043969 24.697266 12.917969 C 24.830266 12.791969 25.00475 12.726562 25.21875 12.726562 z M 24.998047 22.925781 C 21.633047 22.921781 18.333375 22.979234 15.109375 23.115234 C 12.855375 23.115234 11.021484 24.927203 11.021484 27.158203 C 10.888484 28.923203 10.828031 30.693891 10.832031 32.462891 C 10.826031 34.229891 10.887438 35.998578 11.023438 37.767578 C 11.023438 40.002578 12.854375 41.814453 15.109375 41.814453 C 18.334375 41.948453 21.633047 42.006 24.998047 42 C 28.366047 42.007 31.663719 41.947453 34.886719 41.814453 C 37.142719 41.814453 38.976562 40.003578 38.976562 37.767578 C 39.110563 35.997578 39.173969 34.229891 39.167969 32.462891 C 39.174969 30.693891 39.112563 28.923203 38.976562 27.158203 C 38.976562 24.925203 37.143719 23.115234 34.886719 23.115234 C 31.663719 22.980234 28.366047 22.922781 24.998047 22.925781 z M 25.529297 25.822266 L 27.265625 25.822266 C 27.373625 25.822266 27.458984 25.909578 27.458984 26.017578 L 27.458984 29.5625 C 27.601984 29.4325 27.75225 29.323375 27.90625 29.234375 C 28.20025 29.071375 28.497875 28.990234 28.796875 28.990234 C 29.403875 28.990234 29.875219 29.216062 30.199219 29.664062 C 30.509219 30.094062 30.666016 30.712859 30.666016 31.505859 L 30.667969 36.634766 C 30.667969 37.336766 30.51775 37.883672 30.21875 38.263672 C 29.91175 38.660672 29.468438 38.861328 28.898438 38.861328 C 28.537437 38.861328 28.203156 38.787625 27.910156 38.640625 C 27.753156 38.559625 27.601984 38.456125 27.458984 38.328125 L 27.458984 38.550781 C 27.458984 38.658781 27.373625 38.744141 27.265625 38.744141 L 25.529297 38.744141 C 25.421297 38.744141 25.335938 38.658781 25.335938 38.550781 L 25.335938 26.017578 C 25.335938 25.909578 25.421297 25.822266 25.529297 25.822266 z M 13.029297 25.824219 L 18.970703 25.824219 C 19.078703 25.824219 19.164062 25.911531 19.164062 26.019531 L 19.164062 27.833984 C 19.164063 27.941984 19.078703 28.027344 18.970703 28.027344 L 17.160156 28.027344 L 17.160156 38.548828 C 17.160156 38.656828 17.074797 38.742187 16.966797 38.742188 L 15.03125 38.742188 C 14.92325 38.742188 14.837891 38.656828 14.837891 38.548828 L 14.837891 28.027344 L 13.029297 28.027344 C 12.921297 28.027344 12.835938 27.941984 12.835938 27.833984 L 12.835938 26.019531 C 12.835937 25.911531 12.921297 25.824219 13.029297 25.824219 z M 34.380859 28.873047 C 35.220859 28.873047 35.879891 29.129719 36.337891 29.636719 C 36.791891 30.141719 37.021484 30.863156 37.021484 31.785156 L 37.021484 34.144531 C 37.021484 34.252531 36.933172 34.338844 36.826172 34.339844 L 33.736328 34.339844 L 33.736328 35.886719 C 33.736328 36.451719 33.813 36.691922 33.875 36.794922 C 33.926 36.878922 34.020063 36.984375 34.289062 36.984375 C 34.507063 36.984375 34.653469 36.931125 34.730469 36.828125 C 34.767469 36.774125 34.863281 36.560719 34.863281 35.886719 L 34.863281 35.242188 C 34.863281 35.134187 34.948641 35.048828 35.056641 35.048828 L 36.824219 35.048828 C 36.932219 35.048828 37.019531 35.134188 37.019531 35.242188 L 37.019531 35.9375 C 37.019531 36.9335 36.782266 37.697938 36.322266 38.210938 C 35.859266 38.728938 35.160094 38.992188 34.246094 38.992188 C 33.421094 38.992187 32.760203 38.711156 32.283203 38.160156 C 31.811203 37.617156 31.572266 36.869547 31.572266 35.935547 L 31.572266 31.785156 C 31.572266 30.935156 31.835469 30.230453 32.355469 29.689453 C 32.876469 29.147453 33.557859 28.873047 34.380859 28.873047 z M 18.949219 29.109375 L 20.669922 29.109375 C 20.777922 29.109375 20.863281 29.194734 20.863281 29.302734 L 20.863281 36.388672 C 20.863281 36.621672 20.904641 36.716953 20.931641 36.751953 C 20.943641 36.766953 20.979 36.816406 21.125 36.816406 C 21.175 36.816406 21.288187 36.79525 21.492188 36.65625 C 21.658188 36.54425 21.806453 36.410953 21.939453 36.251953 L 21.939453 29.302734 C 21.939453 29.194734 22.026766 29.109375 22.134766 29.109375 L 23.853516 29.109375 C 23.961516 29.109375 24.048828 29.194734 24.048828 29.302734 L 24.048828 38.546875 L 24.050781 38.546875 L 24.050781 38.548828 C 24.050781 38.656828 23.963469 38.741187 23.855469 38.742188 L 22.136719 38.742188 C 22.028719 38.742188 21.941406 38.656828 21.941406 38.548828 L 21.941406 38.023438 C 21.712406 38.245438 21.482141 38.421641 21.244141 38.556641 C 20.870141 38.771641 20.513391 38.876953 20.150391 38.876953 C 19.690391 38.876953 19.333703 38.711766 19.095703 38.384766 C 18.870703 38.074766 18.755859 37.617297 18.755859 37.029297 L 18.755859 29.302734 C 18.755859 29.194734 18.841219 29.109375 18.949219 29.109375 z M 28.091797 30.851562 C 27.978172 30.831563 27.844625 30.850875 27.703125 30.921875 C 27.623125 30.961875 27.544891 31.022422 27.462891 31.107422 L 27.462891 36.710938 C 27.565891 36.815937 27.667719 36.893406 27.761719 36.941406 C 27.866719 36.993406 27.971891 37.019531 28.087891 37.019531 C 28.306891 37.019531 28.373531 36.932344 28.394531 36.902344 C 28.447531 36.834344 28.507812 36.693719 28.507812 36.386719 L 28.507812 31.611328 C 28.507812 31.346328 28.458281 31.142578 28.363281 31.017578 C 28.300281 30.931578 28.205422 30.871562 28.091797 30.851562 z M 34.302734 30.884766 C 34.096734 30.884766 33.955094 30.941641 33.871094 31.056641 C 33.810094 31.141641 33.736328 31.341438 33.736328 31.773438 L 33.736328 32.513672 L 34.861328 32.513672 L 34.861328 31.773438 C 34.861328 31.348437 34.781797 31.147734 34.716797 31.052734 C 34.636797 30.939734 34.500734 30.884766 34.302734 30.884766 z"/></svg>